<svg id="Layer_1" viewBox="0 0 24 24" xmlns="http://www.w3.org/2000/svg" data-name="Layer 1"><path d="m22.37 2.506c-.087-.345-.351-.618-.692-.717-.112-.032-2.792-.789-7.677-.789s-7.565.757-7.677.789c-.337.098-.599.364-.689.703-.026.097-.634 2.424-.634 6.508 0 3.944.604 6.392.63 6.494.087.345.351.618.692.717.112.032 2.792.789 7.677.789s7.565-.757 7.677-.789c.342-.099.605-.372.692-.717.026-.103.63-2.55.63-6.494s-.604-6.392-.63-6.494zm-14.925 1.072c.986-.205 3.23-.578 6.555-.578s5.562.371 6.55.577c.167.907.45 2.823.45 5.423 0 .236-.005.459-.009.683-1.638-1.427-3.15-2.255-3.822-2.581-.237-.116-.51-.133-.762-.048-1.23.421-4.439 1.758-7.641 5.071-.479.495-.952 1.045-1.428 1.625-.158-1.038-.338-2.67-.338-4.75 0-2.671.278-4.541.445-5.422zm6.555 11.422c-2.044 0-3.676-.141-4.862-.297.356-.422.71-.819 1.067-1.188 2.628-2.721 5.284-3.969 6.46-4.426.907.483 2.568 1.508 4.177 3.215-.092.937-.206 1.659-.291 2.119-.989.206-3.231.577-6.55.577zm4.153 5.364c-.525 1.34-.926 2.082-.943 2.113-.202.364-.57.546-.989.522-.626 0-3.292-.071-7.492-1.152-4.73-1.22-7.137-2.622-7.237-2.681-.306-.181-.494-.511-.492-.867 0-.089.021-2.22.786-5.525.125-.537.665-.873 1.199-.749.538.125.874.662.749 1.2-.482 2.088-.648 3.68-.705 4.491.906.446 2.985 1.365 6.199 2.193 3.215.828 5.479 1.028 6.488 1.075.148-.317.349-.772.575-1.35.201-.514.78-.769 1.296-.567.514.202.768.782.566 1.296zm-9.153-13.864c0-1.071.429-1.5 1.5-1.5s1.5.429 1.5 1.5-.429 1.5-1.5 1.5-1.5-.429-1.5-1.5z"/></svg>