<?xml version="1.0" encoding="UTF-8"?>
<svg xmlns="http://www.w3.org/2000/svg" id="Layer_1" data-name="Layer 1" viewBox="0 0 24 24">
  <path d="M22.362,7.503c-.091-.388-.333-.723-.671-.933-.338-.209-.747-.277-1.134-.184-.042,.01-4.278,.999-8.557,.999-3.014,0-5.958-.468-7.458-.75,.004-.023,.008-.046,.012-.068,1.271-.353,3.881-.991,6.903-1.237,3.266-.265,7.148,0,7.187,.001,.823,.051,1.542-.565,1.601-1.392,.058-.826-.565-1.543-1.391-1.601-.167-.011-4.141-.283-7.64,.001-4.628,.377-8.272,1.572-8.425,1.623-.496,.165-.871,.576-.989,1.085-.032,.141-.798,3.487-.798,7.511,0,4.156,1.14,7.24,1.188,7.369,.177,.471,.579,.822,1.069,.935,.165,.038,4.098,.927,8.742,.927s8.576-.889,8.742-.927c.493-.113,.896-.466,1.072-.94,.048-.13,1.187-3.243,1.187-7.364,0-2.164-.302-3.626-.638-5.056Zm-4.893,7.861c-.83,0-1.502-.673-1.502-1.502s.673-1.502,1.502-1.502,1.502,.673,1.502,1.502-.673,1.502-1.502,1.502Z"/>
</svg>
