<?xml version="1.0" encoding="UTF-8"?>
<svg xmlns="http://www.w3.org/2000/svg" id="Layer_1" data-name="Layer 1" viewBox="0 0 24 24">
  <path d="M12,21.211c-4.825,0-8.904-.931-9.075-.97-.328-.076-.595-.311-.712-.625-.05-.133-1.213-3.31-1.213-7.616,0-4.27,1.163-7.478,1.212-7.612,.117-.317,.385-.553,.714-.629,.171-.04,4.26-.97,9.074-.97h7.803c.552,0,1,.448,1,1s-.448,1-1,1h-7.803c-3.595,0-6.826,.558-8.077,.805-.052,.174-.113,.389-.178,.641,1.486,.293,4.826,.864,8.255,.864,4.584,0,9.093-1.065,9.138-1.076,.257-.061,.531-.019,.758,.122,.227,.14,.388,.364,.448,.623,.346,1.481,.656,2.996,.656,5.233,0,4.27-1.163,7.478-1.212,7.612-.117,.317-.385,.553-.714,.629-.171,.04-4.26,.97-9.074,.97Zm-8.079-2.805c1.249,.246,4.482,.805,8.079,.805s6.826-.558,8.077-.805c.305-1.021,.923-3.456,.923-6.407,0-1.567-.164-2.722-.39-3.819-1.636,.329-5.062,.917-8.61,.917-3.655,0-7.123-.597-8.673-.906-.183,1.083-.327,2.385-.327,3.808,0,2.988,.616,5.397,.921,6.406Z"/>
  <circle cx="17.47" cy="13.269" r="1"/>
</svg>
